<svg width="1350" height="190" viewBox="0 0 1350 190" fill="none" xmlns="http://www.w3.org/2000/svg">
<path id="Alexander" d="M-9.53674e-07 186.88L49.408 0H76.288L125.44 186.88H104.96L91.904 136.192H33.536L20.736 186.88H-9.53674e-07ZM37.632 118.784H87.552L71.68 56.32C69.12 45.9093 67.072 37.2053 65.536 30.208C64 23.04 63.0613 18.432 62.72 16.384C62.3787 18.432 61.44 23.04 59.904 30.208C58.368 37.2053 56.32 45.9093 53.76 56.32L37.632 118.784ZM234.652 186.88C226.631 186.88 219.633 185.344 213.66 182.272C207.857 179.2 203.335 174.763 200.092 168.96C196.849 163.157 195.228 156.331 195.228 148.48V18.432H148.38V0H215.452V148.48C215.452 154.795 217.159 159.744 220.572 163.328C223.985 166.741 228.679 168.448 234.652 168.448H279.452V186.88H234.652ZM369.72 189.44C358.797 189.44 349.325 187.307 341.304 183.04C333.283 178.603 327.053 172.373 322.616 164.352C318.179 156.331 315.96 147.029 315.96 136.448V96.512C315.96 85.76 318.179 76.4587 322.616 68.608C327.053 60.5867 333.283 54.4427 341.304 50.176C349.325 45.7387 358.797 43.52 369.72 43.52C380.643 43.52 390.115 45.7387 398.136 50.176C406.157 54.4427 412.387 60.5867 416.824 68.608C421.261 76.4587 423.48 85.76 423.48 96.512V121.344H335.928V136.448C335.928 147.883 338.829 156.757 344.632 163.072C350.605 169.216 358.968 172.288 369.72 172.288C378.765 172.288 386.104 170.496 391.736 166.912C397.539 163.328 401.208 158.123 402.744 151.296H422.968C421.091 163.072 415.373 172.373 405.816 179.2C396.259 186.027 384.227 189.44 369.72 189.44ZM403.512 107.776V96.512C403.512 85.0773 400.611 76.288 394.808 70.144C389.005 63.8293 380.643 60.672 369.72 60.672C358.968 60.672 350.605 63.8293 344.632 70.144C338.829 76.288 335.928 85.0773 335.928 96.512V105.472H405.56L403.512 107.776ZM461.012 186.88L510.932 114.432L464.084 46.08H487.892L517.588 91.648C518.612 93.3547 519.636 95.3173 520.66 97.536C521.855 99.584 522.793 101.205 523.476 102.4C524.159 101.205 525.012 99.584 526.036 97.536C527.231 95.3173 528.34 93.3547 529.364 91.648L559.06 46.08H582.612L535.764 114.688L585.428 186.88H561.62L529.876 138.752C528.681 137.045 527.487 134.997 526.292 132.608C525.268 130.219 524.329 128.341 523.476 126.976C522.793 128.341 521.769 130.219 520.404 132.608C519.039 134.997 517.759 137.045 516.564 138.752L484.564 186.88H461.012ZM665.712 189.44C650.864 189.44 639.173 185.685 630.64 178.176C622.107 170.496 617.84 160.171 617.84 147.2C617.84 134.4 622.021 124.331 630.384 116.992C638.747 109.483 650.011 105.728 664.176 105.728H708.976V90.88C708.976 81.4933 706.245 74.24 700.784 69.12C695.323 64 687.557 61.44 677.488 61.44C668.613 61.44 661.189 63.4027 655.216 67.328C649.413 71.2533 646.085 76.544 645.232 83.2H624.752C626.459 71.0827 632.091 61.44 641.648 54.272C651.376 47.104 663.493 43.52 678 43.52C693.701 43.52 706.16 47.7867 715.376 56.32C724.592 64.6827 729.2 76.032 729.2 90.368V186.88H709.232V159.488H705.904L709.744 155.392C709.744 165.803 705.733 174.08 697.712 180.224C689.691 186.368 679.024 189.44 665.712 189.44ZM670.576 173.056C681.84 173.056 691.056 170.24 698.224 164.608C705.392 158.976 708.976 151.637 708.976 142.592V121.344H664.432C656.411 121.344 650.011 123.563 645.232 128C640.453 132.437 638.064 138.496 638.064 146.176C638.064 154.368 640.965 160.939 646.768 165.888C652.571 170.667 660.507 173.056 670.576 173.056ZM778.252 186.88V46.08H798.476V72.192H803.596L797.964 79.616C797.964 68.352 801.377 59.5627 808.204 53.248C815.201 46.7627 824.673 43.52 836.62 43.52C850.615 43.52 861.793 47.9573 870.156 56.832C878.519 65.536 882.7 77.3973 882.7 92.416V186.88H862.476V94.72C862.476 83.968 859.66 75.6907 854.028 69.888C848.396 64.0853 840.716 61.184 830.988 61.184C820.919 61.184 812.983 64.256 807.18 70.4C801.377 76.544 798.476 85.248 798.476 96.512V186.88H778.252ZM976.808 189.44C962.813 189.44 951.464 184.747 942.76 175.36C934.227 165.973 929.96 153.344 929.96 137.472V95.744C929.96 79.7013 934.227 66.9867 942.76 57.6C951.293 48.2133 962.643 43.52 976.808 43.52C988.584 43.52 998.056 46.7627 1005.22 53.248C1012.56 59.7333 1016.23 68.4373 1016.23 79.36L1010.86 70.912H1015.72L1015.46 40.192V0H1035.69V186.88H1015.46V162.048H1010.09L1016.23 153.6C1016.23 164.693 1012.56 173.483 1005.22 179.968C998.056 186.283 988.584 189.44 976.808 189.44ZM983.208 171.776C993.277 171.776 1001.13 168.704 1006.76 162.56C1012.56 156.245 1015.46 147.541 1015.46 136.448V96.512C1015.46 85.4187 1012.56 76.8 1006.76 70.656C1001.13 64.3413 993.277 61.184 983.208 61.184C972.968 61.184 964.947 64.256 959.144 70.4C953.341 76.544 950.44 85.248 950.44 96.512V136.448C950.44 147.712 953.341 156.416 959.144 162.56C964.947 168.704 972.968 171.776 983.208 171.776ZM1137.22 189.44C1126.3 189.44 1116.83 187.307 1108.8 183.04C1100.78 178.603 1094.55 172.373 1090.12 164.352C1085.68 156.331 1083.46 147.029 1083.46 136.448V96.512C1083.46 85.76 1085.68 76.4587 1090.12 68.608C1094.55 60.5867 1100.78 54.4427 1108.8 50.176C1116.83 45.7387 1126.3 43.52 1137.22 43.52C1148.14 43.52 1157.61 45.7387 1165.64 50.176C1173.66 54.4427 1179.89 60.5867 1184.32 68.608C1188.76 76.4587 1190.98 85.76 1190.98 96.512V121.344H1103.43V136.448C1103.43 147.883 1106.33 156.757 1112.13 163.072C1118.11 169.216 1126.47 172.288 1137.22 172.288C1146.27 172.288 1153.6 170.496 1159.24 166.912C1165.04 163.328 1168.71 158.123 1170.24 151.296H1190.47C1188.59 163.072 1182.87 172.373 1173.32 179.2C1163.76 186.027 1151.73 189.44 1137.22 189.44ZM1171.01 107.776V96.512C1171.01 85.0773 1168.11 76.288 1162.31 70.144C1156.51 63.8293 1148.14 60.672 1137.22 60.672C1126.47 60.672 1118.11 63.8293 1112.13 70.144C1106.33 76.288 1103.43 85.0773 1103.43 96.512V105.472H1173.06L1171.01 107.776ZM1243.36 186.88V46.08H1263.33V72.192H1268.19L1261.02 88.32C1261.19 73.984 1264.69 62.976 1271.52 55.296C1278.35 47.4453 1288.16 43.52 1300.96 43.52C1315.81 43.52 1327.58 48.2133 1336.29 57.6C1345.16 66.816 1349.6 79.2747 1349.6 94.976V103.424H1328.86V96.512C1328.86 85.0773 1326.05 76.288 1320.42 70.144C1314.78 63.8293 1306.76 60.672 1296.35 60.672C1286.28 60.672 1278.35 63.8293 1272.54 70.144C1266.74 76.4587 1263.84 85.248 1263.84 96.512V186.88H1243.36Z" fill="white"/>
</svg>
