<svg width="1498" height="201" viewBox="0 0 1498 201" fill="none" xmlns="http://www.w3.org/2000/svg">
<path id="Piscioneri" d="M0 198.144V11.264H58.624C70.0587 11.264 79.9573 13.4827 88.32 17.92C96.8533 22.3573 103.424 28.672 108.032 36.864C112.64 44.8853 114.944 54.4427 114.944 65.536C114.944 76.4587 112.64 86.016 108.032 94.208C103.424 102.229 96.8533 108.544 88.32 113.152C79.9573 117.589 70.0587 119.808 58.624 119.808H20.224V198.144H0ZM20.224 101.376H58.624C69.376 101.376 77.9093 98.1333 84.224 91.648C90.7093 85.1627 93.952 76.4587 93.952 65.536C93.952 54.4427 90.7093 45.7387 84.224 39.424C77.9093 32.9387 69.376 29.696 58.624 29.696H20.224V101.376ZM151.196 198.144V179.712H201.372V75.776H157.596V57.344H221.852V179.712H269.468V198.144H151.196ZM209.308 31.488C204.017 31.488 199.751 30.1227 196.508 27.392C193.436 24.6613 191.9 20.9067 191.9 16.128C191.9 11.1787 193.436 7.25334 196.508 4.35201C199.751 1.45067 204.017 0 209.308 0C214.599 0 218.78 1.45067 221.852 4.35201C225.095 7.25334 226.716 11.1787 226.716 16.128C226.716 20.736 225.095 24.4907 221.852 27.392C218.78 30.1227 214.599 31.488 209.308 31.488ZM353.848 200.448C344.632 200.448 336.525 198.912 329.528 195.84C322.531 192.768 316.984 188.501 312.888 183.04C308.792 177.408 306.317 170.923 305.464 163.584H325.688C326.883 169.216 329.869 173.739 334.648 177.152C339.597 180.565 345.997 182.272 353.848 182.272H366.392C375.437 182.272 382.264 180.309 386.872 176.384C391.651 172.288 394.04 166.912 394.04 160.256C394.04 153.941 391.992 148.821 387.896 144.896C383.8 140.971 377.912 138.411 370.232 137.216L348.984 133.888C335.672 131.669 325.603 127.403 318.776 121.088C312.12 114.773 308.792 105.899 308.792 94.464C308.792 82.0053 312.803 72.3627 320.824 65.536C329.016 58.5387 340.792 55.04 356.152 55.04H366.136C379.448 55.04 390.115 58.1973 398.136 64.512C406.328 70.8267 411.277 79.36 412.984 90.112H392.504C391.48 84.992 388.664 80.896 384.056 77.824C379.619 74.752 373.645 73.216 366.136 73.216H356.152C347.107 73.216 340.365 75.0933 335.928 78.848C331.491 82.432 329.272 87.6373 329.272 94.464C329.272 100.608 331.149 105.301 334.904 108.544C338.659 111.616 344.376 113.749 352.056 114.944L373.048 118.272C387.043 120.491 397.453 124.928 404.28 131.584C411.107 138.069 414.52 147.2 414.52 158.976C414.52 171.776 410.424 181.931 402.232 189.44C394.04 196.779 382.093 200.448 366.392 200.448H353.848ZM513.236 200.704C502.313 200.704 492.756 198.571 484.564 194.304C476.372 190.037 469.972 183.979 465.364 176.128C460.927 168.107 458.708 158.635 458.708 147.712V107.776C458.708 96.8533 460.927 87.4667 465.364 79.616C469.972 71.5947 476.372 65.4507 484.564 61.184C492.756 56.9173 502.313 54.784 513.236 54.784C529.279 54.784 542.164 59.136 551.892 67.84C561.62 76.544 566.655 88.4053 566.996 103.424H546.772C546.431 93.696 543.273 86.1867 537.3 80.896C531.497 75.6053 523.476 72.96 513.236 72.96C502.825 72.96 494.548 76.032 488.404 82.176C482.26 88.1493 479.188 96.6827 479.188 107.776V147.712C479.188 158.635 482.26 167.168 488.404 173.312C494.548 179.456 502.825 182.528 513.236 182.528C523.476 182.528 531.497 179.883 537.3 174.592C543.273 169.131 546.431 161.621 546.772 152.064H566.996C566.655 167.083 561.62 178.944 551.892 187.648C542.164 196.352 529.279 200.704 513.236 200.704ZM611.696 198.144V179.712H661.872V75.776H618.096V57.344H682.352V179.712H729.968V198.144H611.696ZM669.808 31.488C664.517 31.488 660.251 30.1227 657.008 27.392C653.936 24.6613 652.4 20.9067 652.4 16.128C652.4 11.1787 653.936 7.25334 657.008 4.35201C660.251 1.45067 664.517 0 669.808 0C675.099 0 679.28 1.45067 682.352 4.35201C685.595 7.25334 687.216 11.1787 687.216 16.128C687.216 20.736 685.595 24.4907 682.352 27.392C679.28 30.1227 675.099 31.488 669.808 31.488ZM819.468 200.448C808.545 200.448 799.073 198.315 791.052 194.048C783.031 189.781 776.801 183.637 772.364 175.616C767.927 167.595 765.708 158.123 765.708 147.2V108.288C765.708 97.1947 767.927 87.7227 772.364 79.872C776.801 71.8507 783.031 65.7067 791.052 61.44C799.073 57.1733 808.545 55.04 819.468 55.04C830.391 55.04 839.863 57.1733 847.884 61.44C855.905 65.7067 862.135 71.8507 866.572 79.872C871.009 87.7227 873.228 97.1093 873.228 108.032V147.2C873.228 158.123 871.009 167.595 866.572 175.616C862.135 183.637 855.905 189.781 847.884 194.048C839.863 198.315 830.391 200.448 819.468 200.448ZM819.468 182.272C830.049 182.272 838.241 179.285 844.044 173.312C849.847 167.339 852.748 158.635 852.748 147.2V108.288C852.748 96.8533 849.761 88.1493 843.788 82.176C837.985 76.2027 829.879 73.216 819.468 73.216C809.057 73.216 800.865 76.2027 794.892 82.176C789.089 88.1493 786.188 96.8533 786.188 108.288V147.2C786.188 158.635 789.089 167.339 794.892 173.312C800.865 179.285 809.057 182.272 819.468 182.272ZM921 198.144V57.344H941.224V83.456H946.344L940.712 90.88C940.712 79.616 944.125 70.8267 950.952 64.512C957.949 58.0267 967.421 54.784 979.368 54.784C993.363 54.784 1004.54 59.2213 1012.9 68.096C1021.27 76.8 1025.45 88.6613 1025.45 103.68V198.144H1005.22V105.984C1005.22 95.232 1002.41 86.9547 996.776 81.152C991.144 75.3493 983.464 72.448 973.736 72.448C963.667 72.448 955.731 75.52 949.928 81.664C944.125 87.808 941.224 96.512 941.224 107.776V198.144H921ZM1126.47 200.704C1115.55 200.704 1106.07 198.571 1098.05 194.304C1090.03 189.867 1083.8 183.637 1079.36 175.616C1074.93 167.595 1072.71 158.293 1072.71 147.712V107.776C1072.71 97.024 1074.93 87.7227 1079.36 79.872C1083.8 71.8507 1090.03 65.7067 1098.05 61.44C1106.07 57.0027 1115.55 54.784 1126.47 54.784C1137.39 54.784 1146.86 57.0027 1154.88 61.44C1162.91 65.7067 1169.13 71.8507 1173.57 79.872C1178.01 87.7227 1180.23 97.024 1180.23 107.776V132.608H1092.68V147.712C1092.68 159.147 1095.58 168.021 1101.38 174.336C1107.35 180.48 1115.72 183.552 1126.47 183.552C1135.51 183.552 1142.85 181.76 1148.48 178.176C1154.29 174.592 1157.96 169.387 1159.49 162.56H1179.72C1177.84 174.336 1172.12 183.637 1162.56 190.464C1153.01 197.291 1140.97 200.704 1126.47 200.704ZM1160.26 119.04V107.776C1160.26 96.3413 1157.36 87.552 1151.56 81.408C1145.75 75.0933 1137.39 71.936 1126.47 71.936C1115.72 71.936 1107.35 75.0933 1101.38 81.408C1095.58 87.552 1092.68 96.3413 1092.68 107.776V116.736H1162.31L1160.26 119.04ZM1232.61 198.144V57.344H1252.58V83.456H1257.44L1250.27 99.584C1250.44 85.248 1253.94 74.24 1260.77 66.56C1267.59 58.7093 1277.41 54.784 1290.21 54.784C1305.06 54.784 1316.83 59.4773 1325.54 68.864C1334.41 78.08 1338.85 90.5387 1338.85 106.24V114.688H1318.11V107.776C1318.11 96.3413 1315.3 87.552 1309.66 81.408C1304.03 75.0933 1296.01 71.936 1285.6 71.936C1275.53 71.936 1267.59 75.0933 1261.79 81.408C1255.99 87.7227 1253.09 96.512 1253.09 107.776V198.144H1232.61ZM1379.2 198.144V179.712H1429.37V75.776H1385.6V57.344H1449.85V179.712H1497.47V198.144H1379.2ZM1437.31 31.488C1432.02 31.488 1427.75 30.1227 1424.51 27.392C1421.44 24.6613 1419.9 20.9067 1419.9 16.128C1419.9 11.1787 1421.44 7.25334 1424.51 4.35201C1427.75 1.45067 1432.02 0 1437.31 0C1442.6 0 1446.78 1.45067 1449.85 4.35201C1453.09 7.25334 1454.72 11.1787 1454.72 16.128C1454.72 20.736 1453.09 24.4907 1449.85 27.392C1446.78 30.1227 1442.6 31.488 1437.31 31.488Z" fill="white"/>
</svg>
